<svg width="30" height="30" viewBox="0 0 30 30" fill="none" xmlns="http://www.w3.org/2000/svg">
<path fill-rule="evenodd" clip-rule="evenodd" d="M24.0208 12.8823L22.6402 11.7318C22.2159 11.3782 21.5854 11.4356 21.2318 11.8598C20.8782 12.2841 20.9356 12.9147 21.3598 13.2682L24.3598 15.7682C24.7841 16.1218 25.4147 16.0645 25.7682 15.6402L28.2682 12.6402C28.6218 12.2159 28.5645 11.5854 28.1402 11.2318C27.7159 10.8782 27.0854 10.9356 26.7318 11.3598L25.7458 12.543C25.3185 10.5005 24.3626 8.58983 22.9545 7.01146C20.993 4.8128 18.2912 3.41264 15.3638 3.07778C12.4364 2.74292 9.48821 3.49676 7.08087 5.19567C4.67354 6.89458 2.97539 9.4198 2.31001 12.2901C1.64463 15.1605 2.05853 18.1753 3.47284 20.7601C4.88715 23.3449 7.20301 25.319 9.97913 26.3063C12.7552 27.2936 15.7976 27.225 18.5264 26.1136C20.9829 25.1131 23.0308 23.3305 24.3608 21.0543C24.6057 20.6352 24.4227 20.1067 23.9868 19.8931C23.5509 19.6795 23.0275 19.8622 22.7774 20.2782C21.641 22.1679 19.92 23.6479 17.8633 24.4856C15.5342 25.4341 12.9376 25.4927 10.5682 24.65C8.19872 23.8074 6.22212 22.1224 5.01499 19.9163C3.80787 17.7101 3.4546 15.137 4.02251 12.6871C4.59042 10.2373 6.0398 8.08197 8.09448 6.63194C10.1492 5.18191 12.6655 4.53849 15.164 4.8243C17.6625 5.1101 19.9686 6.30515 21.6427 8.18172C22.8398 9.52355 23.654 11.1468 24.0208 12.8823Z" fill="white"/>
<path d="M13.7646 10V16L17.7646 18" stroke="white" stroke-width="2" stroke-linecap="round" stroke-linejoin="round"/>
</svg>
