<svg width="161" height="259" viewBox="0 0 161 259" fill="none" xmlns="http://www.w3.org/2000/svg">
<path d="M38.121 62.1518L2.30733 134.127C0.878931 136.997 1.08567 140.411 2.85006 143.089L71.8055 247.722C75.3403 253.086 83.1948 253.126 86.7842 247.799L157.452 142.915C159.191 140.334 159.473 137.037 158.197 134.198L125.973 62.4728C124.521 59.2405 121.307 57.1611 117.764 57.1611H46.1786C42.7634 57.1611 39.6424 59.0942 38.121 62.1518Z" fill="#7B00F5"/>
<path d="M76.5882 83.6357L42.1812 57.1611H121.419L83.7074 83.7822C81.5587 85.299 78.6727 85.2396 76.5882 83.6357Z" fill="#5C00B7"/>
<g opacity="0.199997">
<g opacity="0.199997">
<path opacity="0.199997" d="M61.3605 163.747C68.7452 171.132 92.3221 159.528 114.021 137.829C135.721 116.129 147.325 92.5526 139.94 85.1678C132.555 77.7831 108.978 89.387 87.2789 111.086C65.5797 132.786 53.9758 156.362 61.3605 163.747Z" fill="#C2E1EC"/>
</g>
</g>
<path d="M47.9135 122.684C43.1784 116.45 44.4057 107.901 46.0072 100.819C48.0019 92 50.5635 83.0398 55.639 75.4518C59.6906 69.3946 65.8589 64.1489 73.0812 62.5158C74.2672 61.9155 75.4658 61.3874 76.5656 60.9031C79.6668 59.5368 83.0174 58.5612 86.3907 58.194C89.6866 57.8349 92.951 57.9855 96.1946 58.6682C98.0492 59.0592 100.115 59.687 101.926 60.6559C101.99 60.5853 102.089 60.5504 102.178 60.6154C111.551 67.4798 120.949 75.3447 125.371 86.4447C129.244 96.1679 128.702 106.812 122.182 115.278C109.819 131.332 87.5232 137.852 68.0881 133.718C60.612 132.128 52.656 128.927 47.9135 122.684Z" fill="#FFDACC"/>
<g opacity="0.300003">
<g opacity="0.300003">
<path opacity="0.300003" d="M79.4422 103.223C85.2387 103.04 90.7681 105.535 96.5357 105.79C103.224 106.086 109.264 101.836 107.957 94.643C107.285 90.9415 105.223 87.4712 102.698 84.5447C96.0752 77.8888 86.5693 74.8835 76.7844 74.8348C73.8288 74.8199 70.8261 75.099 67.9457 75.7621C66.2612 76.1501 64.7448 76.8838 63.5109 78.1014C62.113 79.4807 61.861 81.7843 61.5775 83.6229C61.0984 86.7297 60.6412 89.8399 60.1733 92.9481C59.6593 96.3597 58.5101 99.9263 61.2396 102.686C65.8186 107.314 73.9615 103.397 79.4422 103.223ZM68.0884 133.718C60.6122 132.128 52.6563 128.927 47.9137 122.684C43.1787 116.45 44.4059 107.901 46.0074 100.819C48.0022 92 50.5637 83.0398 55.6393 75.4518C59.6909 69.3946 65.8587 64.1493 73.081 62.5154C74.267 61.9159 75.466 61.3874 76.5658 60.9031C79.667 59.5368 83.0173 58.5608 86.3909 58.194C89.6865 57.8353 92.9509 57.9851 96.1948 58.6682C98.0491 59.0589 100.116 59.687 101.926 60.6559C101.99 60.5857 102.089 60.55 102.178 60.6154C111.551 67.4794 120.949 75.3447 125.371 86.4447C129.244 96.1676 128.702 106.812 122.182 115.278C109.819 131.332 87.5234 137.852 68.0884 133.718Z" fill="#FFC3B0"/>
</g>
</g>
<path d="M43.1362 128.733C38.1019 118.431 39.4503 105.94 47.3728 97.4824C47.5791 97.2628 47.9315 97.2278 48.1883 97.3724C59.7844 103.884 72.9642 107.358 86.2035 108.103C92.7404 108.47 99.3119 108.072 105.768 107.005C108.65 106.529 111.459 105.849 114.242 105.08C118.974 103.044 123.355 100.226 127.306 96.5354C127.6 96.2604 128.166 96.2697 128.357 96.6778C132.88 106.403 133.08 117.179 128.39 126.905C123.128 137.821 112.572 143.613 101.369 146.841C90.6264 149.936 79.1168 150.986 68.1957 148.2C57.5525 145.486 48.0106 138.708 43.1362 128.733Z" fill="white"/>
<g opacity="0.5">
<g opacity="0.5">
<path opacity="0.5" d="M43.1362 128.733C38.1019 118.431 39.4503 105.94 47.3728 97.4824C47.5791 97.2628 47.9315 97.2278 48.1883 97.3724C59.7844 103.884 72.9642 107.358 86.2035 108.103C92.7404 108.47 99.3119 108.072 105.768 107.005C108.65 106.529 111.459 105.849 114.242 105.08C118.974 103.044 123.355 100.226 127.306 96.5354C127.6 96.2604 128.166 96.2697 128.357 96.6778C132.88 106.403 133.08 117.179 128.39 126.905C123.128 137.821 112.572 143.613 101.369 146.841C90.6264 149.936 79.1168 150.986 68.1957 148.2C57.5525 145.486 48.0106 138.708 43.1362 128.733Z" fill="#E5E5E5"/>
</g>
</g>
<g opacity="0.5">
<g opacity="0.5">
<path opacity="0.5" d="M101.369 146.841C90.6264 149.936 79.1168 150.986 68.1957 148.2C57.5522 145.485 48.0102 138.708 43.1362 128.733C38.1019 118.431 39.4503 105.94 47.3728 97.4824C47.5791 97.2628 47.9315 97.2278 48.1883 97.3724C51.1799 99.052 54.2781 100.526 57.4544 101.807C57.9651 102.442 58.52 103.039 59.1853 103.544C60.1594 104.284 61.7546 104.396 62.8072 103.752C70.367 106.223 78.2732 107.656 86.2035 108.103C89.8975 108.31 93.6023 108.265 97.2915 108.001C97.3027 108.488 97.416 108.992 97.7186 109.599C98.3831 110.933 99.6981 112.033 100.797 113.007C102.07 114.135 103.488 114.94 104.97 115.636C106.182 115.103 107.507 114.749 108.73 114.378C109.234 114.225 109.811 114.043 110.414 113.888C110.359 113.866 110.302 113.844 110.247 113.821C109.843 113.651 110.065 113.044 110.453 113.041C114.331 113.012 118.804 114.63 121.397 110.63C123.056 108.069 120.843 105.231 118.38 103.037C121.547 101.275 124.535 99.1245 127.306 96.5354C127.6 96.2604 128.166 96.2697 128.357 96.6778C132.88 106.404 133.079 117.179 128.39 126.905C123.128 137.821 112.572 143.613 101.369 146.841Z" fill="#CBCBCB"/>
</g>
</g>
<path d="M44.0071 146.747C42.8761 144.834 43.9343 142.928 43.9246 140.878C43.909 137.539 39.9269 135.13 37.9351 132.918C31.261 125.508 31.0027 114.111 37.7656 106.716C44.3472 99.5189 56.3666 100.017 62.1379 107.84C66.0973 113.206 65.7004 121.616 60.6037 125.967C60.678 126.349 60.7661 126.733 60.8746 127.121C61.6213 129.786 63.5254 131.935 64.052 134.683C64.9467 139.354 59.6403 143.504 56.1269 145.539C53.717 146.935 46.0632 150.225 44.0071 146.747Z" fill="#FFCCBA"/>
<g opacity="0.300003">
<g opacity="0.300003">
<path opacity="0.300003" d="M43.6336 143.274C44.7062 144.831 46.6664 145.474 48.8158 145.091C51.7316 144.572 53.904 142.065 55.6917 139.903C57.53 137.681 58.884 134.948 58.0589 132.035C57.4843 130.005 55.6549 128.886 55.6976 126.61C55.7281 124.979 57.1052 123.607 58.186 122.573C60.3368 120.517 61.7365 118.361 62.1197 115.352C62.4464 112.788 61.5853 110.375 60.2543 108.227C58.9475 106.116 57.0256 104.721 55.3338 103.06C54.8755 102.93 54.4652 102.655 54.1117 102.288C57.2274 103.198 60.0808 105.051 62.1383 107.839C66.0977 113.205 65.7 121.616 60.6033 125.966C60.6777 126.349 60.7661 126.733 60.8746 127.12C61.6213 129.786 63.5254 131.934 64.0517 134.682C64.9467 139.354 59.6403 143.504 56.1269 145.539C53.717 146.935 46.0628 150.224 44.0071 146.747C43.3277 145.597 43.4388 144.451 43.6336 143.274Z" fill="#FFCCBA"/>
</g>
</g>
<path d="M50.9502 130.995C50.2481 124.787 52.8713 118.639 56.0633 113.482C57.8216 110.641 59.868 107.924 61.9944 105.348C64.0367 102.873 66.5615 102.226 69.6489 102.618C72.9739 103.041 76.2821 103.765 79.5818 104.348C81.0934 104.615 82.6236 104.85 84.1437 105.131C86.0716 105.306 87.9749 105.681 89.8187 106.343C95.3336 108.324 98.4657 113.397 101.244 118.226C105.815 126.168 111.519 138.839 102.188 145.903C97.735 149.274 91.757 151.012 86.3436 152.065C81.067 153.09 75.6306 153.033 70.4049 151.767C60.4367 149.354 52.128 141.411 50.9502 130.995Z" fill="white"/>
<g opacity="0.5">
<g opacity="0.5">
<path opacity="0.5" d="M70.4048 151.767C64.6209 150.366 59.3989 147.101 55.8015 142.575C55.8279 142.599 55.8524 142.624 55.8784 142.648C63.0599 149.223 73.1492 150.74 82.3514 148.395C87.198 147.161 91.7744 144.77 95.1815 141.073C98.2099 137.788 99.6252 133.274 99.9842 128.901C100.625 121.102 97.3082 114.401 93.2347 108.144C96.7369 110.628 99.0985 114.496 101.244 118.225C105.815 126.168 111.519 138.839 102.188 145.902C97.7349 149.273 91.7573 151.012 86.3439 152.064C81.0673 153.09 75.6309 153.032 70.4048 151.767Z" fill="#E5E5E5"/>
</g>
</g>
<path d="M91.6805 146.793C91.7006 144.572 93.5909 143.486 94.6416 141.726C96.3531 138.858 94.1885 134.739 93.6254 131.816C91.7388 122.023 97.405 112.132 107.016 109.294C116.369 106.531 126.403 113.166 127.304 122.846C127.922 129.487 123.237 136.482 116.626 137.574C116.492 137.94 116.369 138.315 116.262 138.702C115.524 141.371 116.044 144.194 115.075 146.819C113.429 151.281 106.741 152.093 102.682 152.021C99.8974 151.971 91.6441 150.833 91.6805 146.793Z" fill="#FFCCBA"/>
<g opacity="0.300003">
<g opacity="0.300003">
<path opacity="0.300003" d="M102.682 152.021C99.9919 151.973 92.1999 150.908 91.7067 147.194C92.7221 147.898 94.0456 148.165 95.7556 147.919C98.1429 147.577 99.9633 147.593 102.264 148.411C105.395 149.524 108.361 149.539 110.887 147.085C112.118 145.889 112.638 144.135 112.737 142.474C112.821 141.065 112.011 139.819 112.033 138.446C112.063 136.554 113.185 135.652 114.869 135.024C116.225 134.518 117.543 134.286 118.838 133.573C120.231 132.806 121.374 131.595 122.319 130.339C125.332 126.337 125.493 121.299 125.191 116.463C126.334 118.355 127.087 120.511 127.304 122.846C127.922 129.486 123.237 136.482 116.626 137.574C116.492 137.941 116.369 138.315 116.261 138.702C115.524 141.37 116.045 144.194 115.075 146.819C113.429 151.281 106.741 152.093 102.682 152.021Z" fill="#FFCCBA"/>
</g>
</g>
<path d="M86.1368 118.633C84.6854 118.799 83.8388 119.897 84.219 121.317C84.5029 122.377 85.6172 123.157 86.6274 123.61C86.8474 123.664 87.0697 123.709 87.2968 123.741C89.6116 124.06 89.6799 122.146 89.1511 120.533C89.1098 120.497 89.073 120.455 89.0496 120.401C88.4988 119.15 87.4819 118.48 86.1368 118.633ZM66.6531 110.33C65.8555 108.723 66.1781 106.543 67.7023 105.501C71.8974 102.632 77.8683 106.863 81.4114 109.478C83.8745 111.296 86.0391 113.54 87.9993 115.991C89.3789 117.715 91.9319 120.732 90.9745 123.056C90.2939 124.71 89.0909 125.265 87.696 125.159C87.5544 125.161 87.4131 125.159 87.276 125.146C86.6401 125.087 85.9737 124.85 85.353 124.493C82.7951 123.323 80.2154 120.931 79.1338 119.491C78.9212 119.208 79.3393 118.963 79.5768 119.159C80.674 120.064 81.7563 120.965 82.9312 121.773C82.8494 121.543 82.791 121.308 82.7628 121.072C82.4212 118.187 85.2731 117.108 87.4284 117.552C85.4526 114.815 83.0166 112.448 80.4451 110.445C79.4928 109.703 78.334 108.855 77.0859 108.09C76.3931 108.854 75.552 109.502 74.8592 110.276C73.7591 111.504 72.983 113.02 72.4341 114.577C72.9971 115.148 73.5026 115.78 73.9758 116.421C74.0185 116.48 73.9468 116.557 73.8847 116.539C73.1562 116.335 72.4935 115.98 71.9457 115.486C69.9011 114.07 67.7417 112.523 66.6531 110.33Z" fill="#E5E5E5"/>
<path d="M79.0853 119.281C81.7881 121.491 84.3217 124.484 87.9834 124.835C90.1737 125.045 90.862 122.561 90.5037 120.93C90.1845 119.477 88.7989 118.601 87.5084 118.145C85.7237 117.515 83.5163 118.384 83.9385 120.748C84.0285 121.011 84.1441 121.253 84.2786 121.478C84.628 122.455 85.6698 123.18 86.6268 123.61C86.8472 123.664 87.0699 123.709 87.297 123.741C87.721 123.799 88.0685 123.782 88.3518 123.706C87.6486 124.347 86.5904 124.647 85.3836 124.031C83.623 123.132 82.7741 121.551 82.7756 120.091C83.1127 117.946 85.5382 117.163 87.4282 117.552C87.233 117.282 87.0301 117.018 86.8264 116.755C86.9227 116.762 87.0182 116.767 87.1182 116.779C87.8403 116.866 88.5097 117.085 89.1085 117.401C90.387 119.1 91.7065 121.28 90.9746 123.057C90.2937 124.711 89.091 125.265 87.6958 125.16C87.5538 125.162 87.4133 125.16 87.2758 125.147C86.6398 125.087 85.9734 124.851 85.3527 124.494C82.7949 123.324 80.2155 120.931 79.1336 119.491C79.0767 119.416 79.0674 119.343 79.0853 119.281Z" fill="#CBCBCB"/>
<path d="M66.653 110.329C66.1229 109.262 66.091 107.943 66.5738 106.872C66.7496 107.831 66.9652 108.742 67.4881 109.691C68.2931 111.153 69.4516 112.441 70.5763 113.663C71.5936 114.769 72.7851 115.63 73.9864 116.47C73.9789 116.514 73.9295 116.552 73.8849 116.539C73.1561 116.335 72.4934 115.979 71.9455 115.486C69.901 114.069 67.7416 112.523 66.653 110.329Z" fill="#CBCBCB"/>
<path d="M75.882 109.264C75.5293 109.591 75.178 109.92 74.8591 110.276C73.9207 111.324 73.2197 112.582 72.6927 113.896C71.293 112.903 70.1423 111.318 70.6738 109.629C71.3275 107.552 74.4183 108.169 75.882 109.264Z" fill="#CBCBCB"/>
<path d="M54.1927 31.6292C54.8236 33.1824 56.1754 34.9131 58.1581 34.6469C62.1685 34.1143 66.8097 29.0554 66.4042 24.884C66.314 23.8633 65.9536 22.7095 65.2326 21.8663C65.3227 21.7776 65.3227 21.6001 65.1875 21.5113C64.827 21.2894 64.4666 21.1119 64.061 21.0232C63.9258 20.9788 63.8357 20.9344 63.7005 20.8901C63.295 20.8013 62.8444 20.7125 62.3938 20.7569C59.2395 20.6682 55.86 22.9314 54.6433 25.6384C53.9224 27.4134 53.3816 29.6767 54.1927 31.6292Z" fill="#F4D3C3"/>
<path opacity="0.5" d="M54.1927 31.6292C54.8236 33.1824 56.1754 34.9131 58.1581 34.6469C62.1685 34.1143 66.8097 29.0554 66.4042 24.884C66.314 23.8633 65.9536 22.7095 65.2326 21.8663C65.3227 21.7776 65.3227 21.6001 65.1875 21.5113C64.827 21.2894 64.4666 21.1119 64.061 21.0232C63.9258 20.9788 63.8357 20.9344 63.7005 20.8901C63.295 20.8013 62.8444 20.7125 62.3938 20.7569C59.2395 20.6682 55.86 22.9314 54.6433 25.6384C53.9224 27.4134 53.3816 29.6767 54.1927 31.6292Z" fill="#FFD9CC"/>
<path d="M50.9486 46.6277C51.5344 51.0654 53.6973 55.1037 57.0318 58.21C63.9711 64.6891 74.5153 68.6386 84.0231 69.2599C93.0803 69.8368 102.903 67.2185 109.122 60.3845C115.115 53.8167 117.368 44.542 116.196 35.8885C116.196 35.7554 116.106 35.6666 116.016 35.6223C115.836 21.9986 106.328 9.35122 92.4945 5.7567C84.8792 3.75975 75.4616 4.07038 68.8827 8.8187C65.413 11.3038 63.2501 14.7208 61.4477 18.5372C59.2397 23.2411 57.1219 27.9895 54.959 32.7378C52.9763 37.0867 50.3177 41.7019 50.9486 46.6277Z" fill="#FFD9CC"/>
<path opacity="0.5" d="M51.1741 42.2345C52.2105 49.7785 58.8794 55.725 66.3595 58.4764C71.6767 60.429 77.4444 61.0946 83.0319 61.5384C88.6645 61.9821 94.4323 61.7159 99.6142 59.2752C109.077 54.8819 112.817 42.5007 113.313 33.0041C113.583 27.5901 112.457 22.4424 110.068 17.916C113.763 23.0637 115.926 29.2321 116.016 35.6667C116.106 35.7111 116.151 35.7998 116.197 35.933C117.368 44.5864 115.115 53.8612 109.122 60.4289C102.859 67.263 93.0804 69.8812 84.0233 69.3043C74.5155 68.683 64.0163 64.7335 57.032 58.2545C53.7425 55.1925 51.5346 51.1098 50.9488 46.6722C50.7685 45.119 50.9037 43.6545 51.1741 42.2345Z" fill="#F7C8B8"/>
<path d="M107.725 41.8357C108.536 47.0278 113.943 50.933 119.08 48.0929C124.578 44.9865 125.118 37.7087 121.288 33.0491C119.666 31.0522 117.188 29.9428 114.619 30.209C113.853 30.2978 113.042 30.5197 112.321 30.9191C111.06 31.2741 109.933 32.1616 109.212 33.1823C107.5 35.7118 107.32 38.9069 107.725 41.8357Z" fill="#FFD9CC"/>
<path opacity="0.5" d="M112.321 38.0636C112.727 37.1317 113.538 36.0666 114.484 35.4897C114.844 35.1791 115.25 35.046 115.656 35.0904C116.331 35.046 116.962 35.2679 117.593 36.0223C117.728 36.1554 117.864 36.3329 117.954 36.5104C118.269 37.0429 117.593 37.5311 117.143 37.1761C115.07 35.5341 114.259 39.3949 114.078 40.5043C113.808 41.9687 113.898 43.4776 114.439 44.8532C114.574 45.2526 113.988 45.6964 113.673 45.3414C111.916 43.3444 111.24 40.5487 112.321 38.0636Z" fill="#F4D3C3"/>
<path opacity="0.5" d="M77.3992 33.4929C77.8047 32.2947 79.3368 32.4278 80.3732 32.6053C81.4997 32.8272 82.7163 33.626 83.1669 34.691C83.3472 35.1348 82.7614 35.5342 82.3558 35.3123C81.6349 34.8685 81.1392 34.2916 80.2831 34.0254C79.3818 33.7147 78.4806 34.0698 77.6245 33.8479C77.4442 33.8035 77.3541 33.626 77.3992 33.4929Z" fill="#F4D3C3"/>
<path d="M74.8485 36.2495C75.3885 34.5928 72.5416 32.2115 68.4899 30.9307C64.4382 29.6499 60.7159 29.9547 60.1759 31.6115C59.636 33.2683 62.4828 35.6496 66.5345 36.9304C70.5862 38.2111 74.3085 37.9063 74.8485 36.2495Z" fill="#FBD0C2"/>
<path d="M102.273 38.6403C102.182 40.3709 98.6227 41.6135 94.387 41.3472C90.1513 41.1254 86.7717 39.4834 86.8619 37.7527C86.952 36.022 90.5118 34.7795 94.7475 35.0457C98.9832 35.2676 102.363 36.8652 102.273 38.6403Z" fill="#FBD0C2"/>
<path opacity="0.5" d="M120.703 43.2115C122.866 39.972 122.595 36.3331 121.288 33.0049C121.288 33.0049 121.288 33.0049 121.333 33.0493C125.164 37.6644 124.623 44.9866 119.125 48.093C115.836 49.9568 112.411 48.9805 110.158 46.6729C113.853 48.3149 118.359 46.6729 120.703 43.2115Z" fill="#F4D3C3"/>
<path d="M89.4752 49.202C90.6017 46.2287 89.1598 42.5898 85.9154 41.7023C84.3383 41.2585 82.6711 41.8354 81.139 42.1461C78.3452 42.7673 76.6329 41.436 74.5151 39.7941C71.6312 37.5753 68.0264 37.5753 65.3678 40.1491C62.6641 42.7673 62.9345 47.0719 64.7369 50.0895C64.9172 50.3558 65.0974 50.622 65.2777 50.8883C65.2777 50.977 65.3227 51.0658 65.3678 51.1989C68.7023 55.4147 74.7854 57.5892 80.0575 56.7904C83.7976 56.2135 88.4388 53.1071 89.4752 49.202Z" fill="#7F00FD"/>
<path opacity="0.5" d="M89.4751 49.2025C90.6016 46.2292 89.1597 42.5903 85.9153 41.7028C84.3382 41.259 82.6709 41.8359 81.1389 42.1466C80.8235 42.2353 80.5531 42.2353 80.2827 42.2797C82.0852 42.5016 83.5722 41.6584 85.2394 43.0341C87.2671 44.7204 86.6363 47.6493 85.4647 49.6019C85.1493 50.09 84.7888 50.5781 84.3832 50.9775C82.4006 51.8207 80.9136 49.1581 79.6519 48.1818C79.6068 48.1374 79.5618 48.1374 79.5618 48.1374C79.2914 47.9599 78.9309 47.9155 78.6155 48.0487C78.255 48.1818 77.9396 48.5812 77.9846 48.9806C77.9396 49.1137 77.8945 49.2468 77.9396 49.38C78.7056 52.1313 76.1372 54.9271 73.3434 53.507C72.0817 52.8857 71.6762 51.4213 71.9916 50.1788C72.2619 49.2025 73.1632 48.8031 73.7039 48.0487C73.7489 47.9599 73.7039 47.8268 73.6138 47.8268C72.8928 47.6937 72.2619 48.0487 71.7663 48.5812C70.5046 49.025 69.6935 50.4894 69.2429 51.5988C69.1978 51.7319 69.1077 51.9538 69.1077 52.2201C66.6294 50.7556 64.6467 48.5812 63.8807 45.963C63.7455 45.0754 63.6554 44.1435 63.6554 43.2116C63.0245 45.5192 63.5652 48.1374 64.7368 50.1788C64.9171 50.445 65.0973 50.7113 65.2775 50.9775C65.2775 51.0663 65.3226 51.155 65.3677 51.2882C68.7022 55.504 74.7853 57.6784 80.0574 56.8796C83.7975 56.214 88.4387 53.1076 89.4751 49.2025Z" fill="#95BEDB"/>
<path d="M82.8062 55.0599C83.2568 52.6192 82.1303 50.0897 80.418 48.359C79.2014 47.1165 77.0385 45.9183 75.1459 45.9627C71.2707 44.5426 66.8998 47.4271 65.9986 51.2879C65.0073 55.6812 67.801 60.2964 72.3522 61.2727C72.8478 61.3614 73.3435 61.4502 73.8392 61.4945C77.8946 62.6483 82.1303 58.9207 82.8062 55.0599ZM79.1112 53.4623C79.0662 54.3942 78.7508 55.3262 78.2551 56.1249C76.7681 58.4769 73.4787 58.5657 71.3158 57.1456C68.2967 55.1487 69.5133 51.1991 72.4423 49.9122C75.3712 48.5809 78.8859 50.356 79.1112 53.4623Z" fill="#50009F"/>
<g opacity="0.5">
<path opacity="0.5" d="M82.8063 55.0593C83.1217 53.4174 82.7162 51.731 81.86 50.2666C82.5359 54.5268 81.0039 58.6982 76.3626 60.207C73.9293 61.0058 71.2257 60.3845 69.1079 59.0976C67.6659 58.2544 66.945 57.0563 66.269 55.7693C67.1703 58.4319 69.4233 60.6064 72.3522 61.2277C72.8479 61.3164 73.3436 61.4052 73.8392 61.4496C77.8947 62.6477 82.1304 58.9201 82.8063 55.0593Z" fill="#C1E6F4"/>
<path opacity="0.5" d="M75.5518 59.7188C78.9764 59.4082 81.2745 56.3018 81.0492 53.0623C80.8689 50.3553 77.8499 47.6483 75.1012 48.1808C74.8308 48.0921 74.5154 48.0033 74.2 48.0033C74.1098 47.9146 73.9747 47.8258 73.8395 47.8702C70.6852 48.2696 67.6662 50.8878 68.1618 54.2605C68.6575 57.855 71.992 60.0294 75.5518 59.7188ZM72.4426 49.8672C75.3715 48.5802 78.8863 50.3109 79.1566 53.4617C79.1116 54.3936 78.7961 55.3255 78.3005 56.1243C76.8135 58.4762 73.524 58.565 71.3611 57.1449C68.297 55.1036 69.5136 51.1541 72.4426 49.8672Z" fill="#7800EF"/>
</g>
<path d="M76.678 44.8979C76.0922 44.8091 75.5064 44.8535 75.0108 45.031C74.6953 45.0754 74.3799 45.1642 74.0645 45.3417C73.0732 45.8742 72.8028 47.028 72.938 48.0486C73.2985 50.445 76.8582 51.4657 78.5706 49.8237C80.3279 48.1374 78.931 45.2085 76.678 44.8979Z" fill="#4C0098"/>
<path opacity="0.5" d="M78.5706 49.823C80.1928 48.2698 79.1564 45.6959 77.2188 45.0303C77.3089 45.0747 77.399 45.1634 77.5342 45.2078C78.7508 46.1397 78.4805 47.7816 77.3089 48.536C76.3626 49.1573 75.0108 48.891 74.1997 48.2254C73.7491 47.826 73.5238 47.3379 73.3886 46.8053C73.3886 46.4947 73.4337 46.1841 73.4337 45.9178C72.9831 46.4947 72.8929 47.2935 72.9831 48.0479C73.2985 50.4442 76.8583 51.4649 78.5706 49.823Z" fill="#7D00FA"/>
<path d="M95.7841 1.98514C94.5674 0.0769436 92.1792 -0.455578 90.1515 0.387581C89.025 0.875726 88.3941 2.11828 87.9886 3.13894C87.6732 3.80459 87.4478 4.51462 87.0874 5.18027C86.9972 5.3134 86.9522 5.44653 86.8621 5.57966C86.5466 6.15656 86.051 6.55595 85.33 6.60033C84.3837 6.64471 83.3924 5.8903 83.5276 4.86964C83.5726 4.51462 83.7529 4.29274 83.9782 4.07085C84.2936 3.71584 84.6541 3.49396 85.1047 3.36083C85.2399 3.31645 85.1498 3.09456 85.0146 3.09456C83.4375 3.00581 81.9505 4.82526 82.9418 6.28969C84.0683 7.97601 85.8257 7.93163 87.3127 6.68908C88.304 5.84592 88.7095 4.42587 89.2503 3.31645C90.3317 1.09761 92.6749 0.786972 94.3872 2.47329C95.8742 3.93772 95.5588 6.4672 94.3421 7.93163C93.2156 9.35169 91.3681 9.48482 89.7009 9.48482C89.3404 9.48482 89.1602 10.0173 89.5206 10.1948C94.5224 12.5024 98.3525 5.93468 95.7841 1.98514Z" fill="#333333"/>
<path d="M96.8652 32.2053C95.7837 31.8946 95.1979 32.5603 94.4319 33.2703C93.3955 34.2022 92.1338 34.291 90.9172 33.7141C90.1061 33.3591 89.7907 32.5159 89.295 31.8503C89.1598 31.6728 88.7543 31.6728 88.7543 31.939C88.6191 33.3147 89.9259 34.7791 91.3227 35.001C92.2239 35.1342 92.9449 35.0454 93.8011 34.6904C94.2517 34.5129 94.5671 34.2022 94.9276 33.8472C94.9276 33.8472 94.9726 33.8916 95.0177 33.8916C95.2881 33.936 95.5134 33.8916 95.7837 33.8916C96.0541 33.936 96.2794 34.0691 96.5047 34.0691C96.6399 34.0691 96.7751 33.8916 96.73 33.7585C96.5498 33.3591 96.009 33.1816 95.5134 33.2703C95.8739 32.9597 96.2794 32.6934 96.8652 32.6047C97.0905 32.6047 97.0905 32.294 96.8652 32.2053Z" fill="#333333"/>
<path d="M67.0803 26.2152C68.1617 26.4815 68.2969 27.369 68.6574 28.3009C69.108 29.5879 70.0993 30.3423 71.4512 30.431C72.3073 30.4754 73.0283 29.9429 73.7943 29.6323C74.0196 29.5435 74.335 29.7654 74.1998 29.9873C73.6141 31.2742 71.7215 31.8511 70.4148 31.3629C69.5586 31.0523 68.9728 30.6085 68.4321 29.8541C68.1617 29.4547 68.0265 29.0554 67.8914 28.6116C67.8463 28.6116 67.8463 28.6116 67.8012 28.6116C67.5759 28.5228 67.3506 28.3453 67.1253 28.2566C66.9 28.1678 66.6297 28.1678 66.4044 28.0347C66.2692 27.9459 66.2692 27.7684 66.4044 27.6797C66.7198 27.4134 67.3056 27.5465 67.7111 27.8572C67.5759 27.369 67.3506 26.9696 66.9 26.6146C66.6747 26.4815 66.855 26.1709 67.0803 26.2152Z" fill="#333333"/>
<path d="M120.287 96.7635C117.129 103.425 107.72 105.787 102.372 100.101C95.5766 92.8766 96.5288 81.476 97.361 72.4135C97.3788 72.2195 97.6293 72.1898 97.7018 72.3277C98.3392 70.7358 99.6151 69.5268 101.745 69.2804C105.775 68.8147 109.325 71.7966 111.848 74.6097C114.885 77.9957 117.934 82.0718 119.891 86.1873C121.495 89.5643 121.933 93.2936 120.287 96.7635Z" fill="#FFCCBA"/>
<g opacity="0.300003">
<g opacity="0.300003">
<path opacity="0.300003" d="M102.907 100.629C103.955 101.052 105.078 101.328 106.27 101.411C110.903 101.734 115.041 98.832 116.352 94.434C117.743 89.7644 115.738 84.5186 112.701 80.9684C110.026 77.8415 106.191 76.1753 102.198 75.6699C100.362 76.1449 98.5634 76.0549 97.1128 75.2376C97.1916 74.2772 97.2767 73.3328 97.3611 72.4137C97.3789 72.2197 97.6294 72.1899 97.7019 72.3278C98.3389 70.7356 99.6153 69.5269 101.745 69.2805C105.775 68.8144 109.325 71.7967 111.848 74.6099C114.885 77.9958 117.935 82.0719 119.89 86.187C121.496 89.5644 121.933 93.2934 120.288 96.7637C117.232 103.208 108.326 105.627 102.907 100.629Z" fill="#FFCCBA"/>
</g>
</g>
<path d="M103.263 61.3249C103.353 57.9163 107.315 58.8879 108.683 60.7447C109.657 62.069 110.376 63.5999 110.541 65.255C110.581 65.6515 110.643 66.3306 110.619 67.0152C110.684 67.4623 110.652 67.912 110.461 68.3473C110.063 69.2504 109.159 70.3208 108.019 70.0796C104.932 69.4262 103.19 64.066 103.263 61.3249Z" fill="#FFCCBA"/>
<g opacity="0.300003">
<g opacity="0.300003">
<path opacity="0.300003" d="M103.263 61.3249C103.353 57.9163 107.315 58.8879 108.683 60.7447C109.657 62.069 110.376 63.5999 110.541 65.255C110.581 65.6515 110.643 66.3306 110.619 67.0152C110.684 67.4623 110.652 67.912 110.461 68.3473C110.063 69.2504 109.159 70.3208 108.019 70.0796C104.932 69.4262 103.19 64.066 103.263 61.3249Z" fill="#FFCCBA"/>
</g>
</g>
<path d="M93.7431 61.4502C96.0382 59.4153 98.8465 59.0042 101.475 59.6621C101.931 59.7409 102.381 59.852 102.817 59.9951C106.086 61.0681 108.969 63.7252 109.977 67.0227C112.155 74.1517 102.368 78.7087 96.7354 76.8355C90.2019 74.6631 88.7505 65.8764 93.7431 61.4502Z" fill="#FFD4C4"/>
<path d="M93.6835 61.3905C95.9785 59.3556 98.7869 58.9446 101.415 59.6024C101.871 59.6812 102.322 59.7924 102.757 59.9355C106.027 61.0085 108.91 63.6655 109.917 66.9634C112.095 74.092 102.309 78.6491 96.6758 76.7758C90.1422 74.6034 88.6908 65.8168 93.6835 61.3905Z" fill="#FFCCBA"/>
<g opacity="0.300003">
<g opacity="0.300003">
<path opacity="0.300003" d="M102.872 73.2302C105.583 71.8539 106.495 69.1708 106.125 66.4595C106.072 66.1729 106.019 65.8864 105.966 65.5998C105.91 65.3608 105.847 65.1218 105.772 64.8851C104.974 62.3826 102.965 60.9692 100.969 59.5498C101.138 59.5828 101.307 59.6204 101.475 59.662C101.93 59.7412 102.381 59.8519 102.817 59.995C106.087 61.0684 108.969 63.7251 109.977 67.0229C112.155 74.1516 102.368 78.7086 96.7354 76.8354C95.1431 76.3062 93.8557 75.3822 92.8863 74.2263C93.1354 74.3534 93.3985 74.4731 93.6806 74.5812C96.5562 75.6862 100.273 74.5493 102.872 73.2302Z" fill="#FFCCBA"/>
</g>
</g>
<path d="M40.6843 84.0366C42.4995 79.8576 45.4093 75.6804 48.3295 72.1937C50.7562 69.2965 54.203 66.1961 58.2464 66.525C60.3835 66.6989 61.6996 67.8641 62.3906 69.4337C62.4586 69.2936 62.7102 69.3148 62.734 69.508C63.8728 78.5366 65.2108 89.8986 58.6638 97.3488C53.5117 103.212 44.0282 101.17 40.6456 94.6203C38.8839 91.2084 39.1946 87.4664 40.6843 84.0366Z" fill="#FFCCBA"/>
<g opacity="0.300003">
<g opacity="0.300003">
<path opacity="0.300003" d="M58.147 97.8952C57.1138 98.3531 56.001 98.6668 54.8124 98.7902C50.1933 99.2697 45.9596 96.51 44.5008 92.1589C42.9516 87.539 44.778 82.2286 47.693 78.5777C50.2602 75.3616 54.0371 73.5664 58.0102 72.9264C59.8608 73.3386 61.6559 73.1877 63.078 72.3217C62.9668 71.3646 62.8494 70.4236 62.7342 69.5078C62.7096 69.3145 62.4584 69.293 62.3904 69.4338C61.6998 67.8639 60.3837 66.6987 58.2466 66.5247C54.2032 66.1958 50.756 69.2967 48.3297 72.1935C45.4095 75.6801 42.4997 79.8573 40.6841 84.0367C39.1948 87.4662 38.8833 91.2081 40.6458 94.6201C43.918 100.957 52.9001 103.074 58.147 97.8952Z" fill="#FFCCBA"/>
</g>
</g>
<path d="M52.0034 67.5365C50.8724 67.8164 49.9317 66.7768 49.5039 65.8882C49.2976 65.4596 49.2515 65.0107 49.3006 64.5617C49.2537 63.8785 49.2931 63.1976 49.3192 62.8C49.4284 61.1401 50.0941 59.5861 51.024 58.2295C52.3278 56.3273 56.2545 55.2223 56.4604 58.6254C56.6258 61.3627 55.0656 66.7787 52.0034 67.5365Z" fill="#FFCCBA"/>
<g opacity="0.300003">
<g opacity="0.300003">
<path opacity="0.300003" d="M52.0034 67.5365C50.8724 67.8164 49.9317 66.7768 49.5039 65.8882C49.2976 65.4596 49.2515 65.0107 49.3006 64.5617C49.2537 63.8785 49.2931 63.1976 49.3192 62.8C49.4284 61.1401 50.0941 59.5861 51.024 58.2295C52.3278 56.3273 56.2545 55.2223 56.4604 58.6254C56.6258 61.3627 55.0656 66.7787 52.0034 67.5365Z" fill="#FFCCBA"/>
</g>
</g>
<path d="M63.5093 73.9062C57.9424 75.969 48.0076 71.746 49.9433 64.5475C50.8386 61.2177 53.6295 58.4648 56.8612 57.281C57.2908 57.1234 57.738 56.9974 58.1907 56.903C60.7953 56.1567 63.6159 56.4722 65.9786 58.4283C71.1185 62.6828 69.9655 71.5137 63.5093 73.9062Z" fill="#FFD4C4"/>
<path d="M63.5669 73.8447C58 75.9074 48.0652 71.6845 50.0009 64.486C50.8963 61.1562 53.6871 58.4032 56.9188 57.2195C57.3485 57.0619 57.7956 56.9359 58.2483 56.8415C60.8529 56.0952 63.6735 56.4107 66.0363 58.3668C71.1761 62.6213 70.0232 71.4522 63.5669 73.8447Z" fill="#FFCCBA"/>
<g opacity="0.300003">
<g opacity="0.300003">
<path opacity="0.300003" d="M57.2543 70.5107C54.4977 69.2273 53.4949 66.5766 53.7736 63.8545C53.8168 63.566 53.8595 63.278 53.9026 62.9896C53.9513 62.7484 54.0059 62.5079 54.0732 62.2689C54.7857 59.7404 56.7459 58.2597 58.6931 56.7734C58.5247 56.8124 58.3571 56.8552 58.1902 56.9031C57.7382 56.9975 57.2911 57.1235 56.8607 57.2811C53.6294 58.4645 50.8386 61.2175 49.9428 64.5476C48.0079 71.7461 57.9427 75.9691 63.5095 73.9063C65.0825 73.3235 66.3383 72.3561 67.2671 71.1678C67.0233 71.3039 66.7639 71.4317 66.4863 71.5495C63.6493 72.7511 59.8958 71.7406 57.2543 70.5107Z" fill="#FFCCBA"/>
</g>
</g>
</svg>
