<svg width="22" height="22" viewBox="0 0 22 22" fill="none" xmlns="http://www.w3.org/2000/svg">
<path d="M20.4127 4.37085C20.6237 4.29037 20.806 4.22085 20.9449 4.13272C21.1012 4.03364 21.2326 3.93008 21.3467 3.816C22.2183 2.94442 22.2181 1.52594 21.3462 0.653935C20.4743 -0.217814 19.0559 -0.218028 18.1842 0.653591C18.0704 0.767415 17.9668 0.89877 17.8674 1.05531C17.7794 1.19418 17.7099 1.37641 17.6294 1.58739C17.552 1.79037 17.3734 2.25881 17.2446 2.33852C17.2337 2.33487 17.213 2.32619 17.1816 2.30578C16.5726 1.90914 15.2296 1.27711 14.1878 1.47816L13.8425 1.13286C13.5396 0.829935 13.1368 0.66313 12.7084 0.66313C12.28 0.66313 11.8773 0.829935 11.5744 1.13286C11.2714 1.43579 11.1046 1.83854 11.1046 2.26694C11.1046 2.48539 11.1482 2.69705 11.2309 2.89235C10.4135 2.84216 9.5792 3.12799 8.95598 3.75116L4.70461 8.00252C4.53682 8.17032 4.53682 8.44244 4.70461 8.61027C4.87241 8.77806 5.14453 8.77806 5.31236 8.61027L7.72462 6.19801L9.25341 7.72675C9.33732 7.81067 9.44728 7.85261 9.55728 7.85261C9.66728 7.85261 9.77728 7.81062 9.86116 7.72675C10.0289 7.55896 10.0289 7.28684 9.86116 7.11904L8.33242 5.59031L9.56377 4.35895C9.96024 3.96248 10.4873 3.74416 11.048 3.74416C11.6086 3.74416 12.1357 3.96248 12.5323 4.35895L17.6411 9.46784C18.0376 9.86431 18.2559 10.3915 18.2559 10.9521C18.2559 11.5128 18.0376 12.0399 17.6411 12.4363L9.33926 20.7384C8.80258 21.2751 7.92928 21.2752 7.39252 20.7384L1.26184 14.6078C0.725115 14.071 0.725115 13.1977 1.26184 12.661L3.23904 10.6838C3.40683 10.516 3.40683 10.2439 3.23904 10.0761C3.07125 9.90823 2.79913 9.90827 2.63129 10.0761L0.654088 12.0533C-0.217704 12.9251 -0.217704 14.3436 0.654088 15.2155L6.78481 21.3461C7.22073 21.7821 7.79329 22 8.36589 22C8.93849 22 9.51109 21.7821 9.94701 21.3461L18.249 13.0442C18.8722 12.421 19.158 11.5866 19.1078 10.7693C19.303 10.8519 19.5148 10.8956 19.7332 10.8956C20.1616 10.8956 20.5643 10.7288 20.8673 10.4258C21.4926 9.80055 21.4926 8.78301 20.8673 8.15773L20.522 7.81243C20.7231 6.77065 20.091 5.42771 19.6944 4.81859C19.674 4.78726 19.6653 4.7666 19.6617 4.75568C19.7414 4.62686 20.2097 4.44828 20.4127 4.37085ZM19.7389 8.24478C19.739 8.24491 19.7392 8.24504 19.7394 8.24517L20.2596 8.76539C20.5498 9.05569 20.5498 9.52791 20.2595 9.81812C20.119 9.95867 19.932 10.0361 19.7332 10.0361C19.5344 10.0361 19.3475 9.95867 19.2069 9.81804L12.1822 2.79335C12.0416 2.65279 11.9642 2.46584 11.9642 2.26702C11.9642 2.06821 12.0416 1.88125 12.1822 1.7407C12.3273 1.59559 12.518 1.52306 12.7086 1.52306C12.8992 1.52306 13.0898 1.59559 13.2349 1.7407L13.7554 2.26118C13.7554 2.26122 13.7554 2.26131 13.7555 2.26135L19.7389 8.24478ZM18.9742 5.28759C19.2876 5.76888 19.5561 6.39975 19.6585 6.94893L15.0513 2.34174C15.6005 2.44405 16.2313 2.71265 16.7126 3.02611C17.0441 3.24185 17.3252 3.21822 17.5027 3.16051C18.0126 2.99457 18.2454 2.38415 18.4324 1.89371C18.4882 1.74732 18.5515 1.58128 18.5931 1.51576C18.6581 1.41332 18.7231 1.33013 18.7919 1.26138C19.3284 0.724919 20.2017 0.725048 20.7384 1.26173C21.2751 1.79858 21.2754 2.67179 20.7389 3.20834C20.6701 3.27713 20.5869 3.3421 20.4846 3.40694C20.4188 3.44866 20.2528 3.51195 20.1063 3.56781C19.6159 3.75485 19.0056 3.98766 18.8397 4.49748C18.782 4.67503 18.7584 4.95622 18.9742 5.28759Z" fill="#757575"/>
</svg>
