<svg width="32" height="32" viewBox="0 0 32 32" fill="none" xmlns="http://www.w3.org/2000/svg">
<rect opacity="0.05" width="32" height="32" rx="16" fill="white"/>
<rect opacity="0.05" x="1.45459" y="1.4541" width="29.0909" height="29.0909" rx="14.5455" fill="white"/>
<path d="M6.16873 14.0495C6.3619 14.5251 6.77583 15.0551 7.38292 14.9735C8.61091 14.8105 10.0321 13.2614 9.90788 11.9841C9.88029 11.6716 9.76991 11.3183 9.54915 11.0601C9.57674 11.0329 9.57674 10.9786 9.53535 10.9514C9.42497 10.8835 9.31459 10.8291 9.19041 10.8019C9.14901 10.7884 9.12142 10.7748 9.08003 10.7612C8.95585 10.734 8.81787 10.7068 8.6799 10.7204C7.71406 10.6932 6.67924 11.3862 6.30671 12.2151C6.08595 12.7586 5.92037 13.4516 6.16873 14.0495Z" fill="#F4D3C3"/>
<path d="M5.17544 18.6417C5.35481 20.0006 6.0171 21.2371 7.03812 22.1883C9.16295 24.1721 12.3916 25.3815 15.3029 25.5717C18.0762 25.7484 21.0841 24.9467 22.9882 22.8541C24.8232 20.843 25.5131 18.0031 25.1544 15.3534C25.1544 15.3126 25.1268 15.2854 25.0992 15.2719C25.044 11.1003 22.1327 7.22763 17.8968 6.12698C15.565 5.51551 12.6813 5.61063 10.6669 7.06457C9.60448 7.82551 8.94219 8.8718 8.39029 10.0404C7.7142 11.4807 7.06572 12.9347 6.40343 14.3886C5.79634 15.7203 4.98228 17.1334 5.17544 18.6417Z" fill="#F4D3C3"/>
<path opacity="0.5" d="M5.24451 17.2969C5.56185 19.6069 7.6039 21.4277 9.8943 22.2702C11.5224 22.8681 13.2885 23.0719 14.9994 23.2078C16.7241 23.3437 18.4902 23.2622 20.0769 22.5148C22.9744 21.1696 24.1196 17.3785 24.2714 14.4706C24.3542 12.8128 24.0093 11.2366 23.278 9.85059C24.4094 11.4268 25.0717 13.3156 25.0993 15.2859C25.1269 15.2995 25.1407 15.3266 25.1545 15.3674C25.5132 18.0171 24.8233 20.857 22.9882 22.8681C21.0704 24.9607 18.0763 25.7624 15.303 25.5857C12.3917 25.3955 9.17683 24.1862 7.0382 22.2023C6.03097 21.2647 5.35489 20.0146 5.17552 18.6557C5.12033 18.1802 5.16172 17.7317 5.24451 17.2969Z" fill="#F4D3C3"/>
<path d="M22.5604 17.1737C22.8088 18.7635 24.4645 19.9592 26.0374 19.0896C27.7207 18.1384 27.8863 15.9099 26.7135 14.4832C26.2168 13.8717 25.4579 13.532 24.6714 13.6135C24.4369 13.6407 24.1885 13.7087 23.9678 13.8309C23.5814 13.9397 23.2365 14.2114 23.0157 14.5239C22.4914 15.2985 22.4362 16.2768 22.5604 17.1737Z" fill="#F4D3C3"/>
<path d="M12.4938 15.4635C12.6591 14.9562 11.7874 14.2271 10.5468 13.8349C9.30615 13.4427 8.16638 13.5361 8.00104 14.0434C7.83569 14.5507 8.7074 15.2798 9.94804 15.672C11.1887 16.0642 12.3284 15.9708 12.4938 15.4635Z" fill="#F4D3C3"/>
<path d="M20.891 16.1966C20.8634 16.7266 19.7733 17.107 18.4764 17.0255C17.1794 16.9576 16.1446 16.4548 16.1722 15.9249C16.1998 15.3949 17.2898 15.0144 18.5868 15.096C19.8837 15.1639 20.9185 15.6531 20.891 16.1966Z" fill="#F4D3C3"/>
<path d="M16.9724 19.4302C17.3173 18.5198 16.8758 17.4055 15.8824 17.1338C15.3995 16.9979 14.8889 17.1745 14.4198 17.2696C13.5644 17.4599 13.0401 17.0522 12.3916 16.5495C11.5085 15.87 10.4047 15.87 9.59066 16.6582C8.7628 17.4599 8.84558 18.7779 9.39749 19.7019C9.45268 19.7835 9.50787 19.865 9.56306 19.9465C9.56306 19.9737 9.57686 20.0009 9.59066 20.0416C10.6117 21.3325 12.4744 21.9983 14.0887 21.7537C15.2339 21.5771 16.655 20.6259 16.9724 19.4302Z" fill="#7F00FD"/>
<path opacity="0.5" d="M16.9725 19.4299C17.3174 18.5195 16.8759 17.4053 15.8825 17.1335C15.3996 16.9976 14.889 17.1743 14.4199 17.2694C14.3233 17.2966 14.2406 17.2966 14.1578 17.3102C14.7097 17.3781 15.165 17.1199 15.6755 17.5412C16.2964 18.0575 16.1032 18.9543 15.7445 19.5522C15.6479 19.7017 15.5375 19.8512 15.4134 19.9735C14.8063 20.2316 14.3509 19.4163 13.9646 19.1174C13.9508 19.1038 13.937 19.1038 13.937 19.1038C13.8542 19.0495 13.7438 19.0359 13.6473 19.0766C13.5369 19.1174 13.4403 19.2397 13.4541 19.362C13.4403 19.4028 13.4265 19.4435 13.4403 19.4843C13.6749 20.3268 12.8884 21.1828 12.0329 20.748C11.6466 20.5578 11.5224 20.1093 11.619 19.7289C11.7018 19.4299 11.9777 19.3076 12.1433 19.0766C12.1571 19.0495 12.1433 19.0087 12.1157 19.0087C11.895 18.9679 11.7018 19.0766 11.55 19.2397C11.1637 19.3756 10.9153 19.824 10.7774 20.1637C10.7636 20.2045 10.736 20.2724 10.736 20.3539C9.97709 19.9055 9.37 19.2397 9.13544 18.438C9.09404 18.1662 9.06645 17.8809 9.06645 17.5955C8.87328 18.3021 9.03885 19.1038 9.39759 19.7289C9.45278 19.8104 9.50797 19.8919 9.56316 19.9735C9.56316 20.0006 9.57696 20.0278 9.59076 20.0686C10.6118 21.3595 12.4745 22.0253 14.0888 21.7807C15.234 21.5769 16.6551 20.6257 16.9725 19.4299Z" fill="#95BEDB"/>
<path d="M14.9303 21.2234C15.0682 20.4761 14.7233 19.7016 14.199 19.1716C13.8265 18.7912 13.1642 18.4243 12.5847 18.4379C11.3981 18.003 10.0597 18.8863 9.78375 20.0684C9.48021 21.4137 10.3357 22.8269 11.7292 23.1258C11.881 23.153 12.0328 23.1801 12.1845 23.1937C13.4263 23.547 14.7233 22.4056 14.9303 21.2234ZM13.7989 20.7343C13.7851 21.0196 13.6885 21.305 13.5367 21.5496C13.0814 22.2697 12.0742 22.2969 11.4119 21.8621C10.4874 21.2506 10.86 20.0413 11.7568 19.6472C12.6537 19.2396 13.7299 19.7831 13.7989 20.7343Z" fill="#50009F"/>
<g opacity="0.5">
<path opacity="0.5" d="M14.9302 21.2224C15.0268 20.7196 14.9026 20.2033 14.6404 19.7549C14.8474 21.0594 14.3783 22.3366 12.9571 22.7986C12.212 23.0432 11.3842 22.853 10.7357 22.4589C10.2942 22.2008 10.0734 21.8339 9.86646 21.4398C10.1424 22.2551 10.8323 22.9209 11.7291 23.1112C11.8809 23.1384 12.0327 23.1655 12.1845 23.1791C13.4262 23.546 14.7232 22.4046 14.9302 21.2224Z" fill="#C1E6F4"/>
<path opacity="0.5" d="M12.7087 22.6483C13.7573 22.5532 14.461 21.602 14.392 20.61C14.3368 19.7812 13.4124 18.9523 12.5707 19.1153C12.4879 19.0882 12.3913 19.061 12.2948 19.061C12.2672 19.0338 12.2258 19.0066 12.1844 19.0202C11.2185 19.1425 10.2941 19.9442 10.4459 20.9769C10.5977 22.0776 11.6187 22.7434 12.7087 22.6483ZM11.7567 19.6317C12.6535 19.2376 13.7297 19.7676 13.8125 20.7323C13.7987 21.0177 13.7021 21.303 13.5503 21.5476C13.095 22.2678 12.0878 22.295 11.4255 21.8602C10.4873 21.2351 10.8598 20.0257 11.7567 19.6317Z" fill="#7800EF"/>
</g>
<path d="M13.0538 18.1112C12.8745 18.0841 12.6951 18.0977 12.5433 18.152C12.4467 18.1656 12.3501 18.1928 12.2536 18.2471C11.95 18.4102 11.8672 18.7635 11.9086 19.076C12.019 19.8098 13.109 20.1223 13.6333 19.6195C14.1714 19.1032 13.7437 18.2064 13.0538 18.1112Z" fill="#4C0098"/>
<path opacity="0.5" d="M13.6334 19.6199C14.1301 19.1443 13.8127 18.3562 13.2194 18.1523C13.247 18.1659 13.2746 18.1931 13.316 18.2067C13.6886 18.492 13.6058 18.9948 13.247 19.2258C12.9573 19.416 12.5434 19.3345 12.295 19.1307C12.157 19.0084 12.088 18.8589 12.0466 18.6959C12.0466 18.6008 12.0604 18.5056 12.0604 18.4241C11.9225 18.6008 11.8949 18.8453 11.9225 19.0763C12.019 19.8101 13.1091 20.1226 13.6334 19.6199Z" fill="#7D00FA"/>
<path d="M18.9041 4.97211C18.5315 4.38782 17.8003 4.22476 17.1794 4.48294C16.8344 4.63241 16.6413 5.01288 16.5171 5.32541C16.4205 5.52923 16.3515 5.74664 16.2411 5.95046C16.2135 5.99123 16.1997 6.03199 16.1721 6.07276C16.0756 6.2494 15.9238 6.3717 15.703 6.38529C15.4133 6.39887 15.1097 6.16787 15.1511 5.85535C15.1649 5.74664 15.2201 5.6787 15.2891 5.61076C15.3857 5.50205 15.4961 5.43411 15.634 5.39335C15.6754 5.37976 15.6478 5.31182 15.6064 5.31182C15.1235 5.28464 14.6682 5.84176 14.9718 6.29017C15.3167 6.80652 15.8548 6.79293 16.3101 6.41246C16.6137 6.15429 16.7378 5.71946 16.9034 5.37976C17.2346 4.70035 17.952 4.60523 18.4763 5.12158C18.9317 5.56999 18.8351 6.34452 18.4625 6.79293C18.1176 7.22776 17.5519 7.26852 17.0414 7.26852C16.931 7.26852 16.8758 7.43158 16.9862 7.48593C18.5177 8.19252 19.6905 6.18146 18.9041 4.97211Z" fill="#333333"/>
<path d="M19.2351 14.2257C18.9039 14.1306 18.7245 14.3344 18.49 14.5518C18.1726 14.8372 17.7863 14.8643 17.4138 14.6877C17.1654 14.579 17.0688 14.3208 16.9171 14.117C16.8757 14.0626 16.7515 14.0626 16.7515 14.1442C16.7101 14.5654 17.1102 15.0138 17.538 15.0817C17.8139 15.1225 18.0347 15.0953 18.2968 14.9866C18.4348 14.9323 18.5314 14.8372 18.6418 14.7285C18.6418 14.7285 18.6556 14.742 18.6694 14.742C18.7521 14.7556 18.8211 14.742 18.9039 14.742C18.9867 14.7556 19.0557 14.7964 19.1247 14.7964C19.1661 14.7964 19.2075 14.742 19.1937 14.7013C19.1385 14.579 18.9729 14.5246 18.8211 14.5518C18.9315 14.4567 19.0557 14.3752 19.2351 14.348C19.304 14.348 19.304 14.2529 19.2351 14.2257Z" fill="#333333"/>
<path d="M10.115 12.391C10.4461 12.4725 10.4875 12.7443 10.5979 13.0296C10.7359 13.4237 11.0394 13.6547 11.4533 13.6818C11.7155 13.6954 11.9362 13.5324 12.1708 13.4373C12.2398 13.4101 12.3364 13.478 12.295 13.546C12.1156 13.94 11.5361 14.1167 11.136 13.9672C10.8738 13.8721 10.6945 13.7362 10.5289 13.5052C10.4461 13.3829 10.4047 13.2606 10.3633 13.1247C10.3495 13.1247 10.3495 13.1247 10.3357 13.1247C10.2667 13.0976 10.1977 13.0432 10.1288 13.016C10.0598 12.9888 9.97699 12.9888 9.908 12.9481C9.8666 12.9209 9.8666 12.8666 9.908 12.8394C10.0046 12.7578 10.184 12.7986 10.3081 12.8937C10.2667 12.7443 10.1977 12.622 10.0598 12.5133C9.99078 12.4725 10.046 12.3774 10.115 12.391Z" fill="#333333"/>
</svg>
