<svg width="32" height="32" viewBox="0 0 32 32" fill="none" xmlns="http://www.w3.org/2000/svg">
<path d="M16.9844 18.8799L17.9531 19.8399" stroke="#757575" stroke-linecap="round" stroke-linejoin="round"/>
<path d="M9.23438 18.8799L8.26562 19.8399" stroke="#757575" stroke-linecap="round" stroke-linejoin="round"/>
<path d="M20.3779 12.0387C19.57 11.9658 19.2453 12.5115 18.7989 13.1125C18.1911 13.9055 17.3097 14.137 16.37 13.8953C15.7476 13.755 15.4101 13.2056 14.969 12.805C14.8492 12.6985 14.5621 12.7529 14.5981 12.9398C14.6886 13.9233 15.8122 14.7757 16.8314 14.7441C17.4876 14.7166 17.9862 14.5576 18.5444 14.1936C18.8395 14.0086 19.0208 13.7483 19.228 13.4508C19.228 13.4508 19.2659 13.4759 19.2979 13.4699C19.4953 13.4648 19.6489 13.4034 19.8403 13.3671C20.0378 13.362 20.2154 13.4252 20.3749 13.395C20.4706 13.3769 20.5423 13.2342 20.4924 13.1468C20.3107 12.8907 19.9038 12.8387 19.5648 12.9674C19.778 12.7011 20.0291 12.4598 20.432 12.319C20.5915 12.2888 20.5495 12.0708 20.3779 12.0387Z" fill="#757575"/>
<path d="M6.19399 12.122C6.99207 12.0342 7.30417 12.5961 7.77977 13.1323C8.40461 13.8844 9.26303 14.1462 10.2 13.8727C10.7904 13.6916 11.146 13.1568 11.5872 12.7598C11.7176 12.6448 11.9862 12.7159 11.9499 12.898C11.8733 13.9054 10.7359 14.7585 9.73021 14.753C9.07357 14.7555 8.56683 14.6022 8.01336 14.2294C7.73111 14.0282 7.54035 13.7936 7.33856 13.5293C7.30806 13.5404 7.30806 13.5404 7.27757 13.5515C7.10303 13.5475 6.90643 13.4839 6.73189 13.4799C6.55735 13.4759 6.37437 13.5425 6.1888 13.5087C6.07526 13.4825 6.03113 13.3634 6.10056 13.2706C6.24785 13.0143 6.67738 12.9593 7.02906 13.0678C6.81624 12.7737 6.56448 12.5613 6.17128 12.4342C5.98571 12.4004 6.03048 12.1477 6.19399 12.122Z" fill="#757575"/>
<path d="M8.75 19.3604C10.0578 20.8092 13.6325 22.8377 17.4687 19.3604" stroke="#757575" stroke-linecap="round" stroke-linejoin="round"/>
<path fill-rule="evenodd" clip-rule="evenodd" d="M13.1094 27C19.1043 27 23.9769 22.3033 24.21 16.4398C24.3809 16.4661 24.556 16.4798 24.7344 16.4798C24.896 16.4798 25.0549 16.4686 25.2105 16.4469C24.9733 22.8673 19.6462 28 13.1094 28C6.42155 28 1 22.6274 1 16C1 9.37258 6.42155 4 13.1094 4C16.0225 4 18.6954 5.01937 20.7846 6.71779C20.6149 7.0271 20.4929 7.36577 20.4282 7.72413C18.4747 6.02865 15.9149 5 13.1094 5C6.96526 5 2 9.9334 2 16C2 22.0666 6.96526 27 13.1094 27Z" fill="#757575"/>
<path d="M26.1875 10.9644V11.6799H22.3125V11.1184L25.0442 7.59535H22.3649V6.87988H26.1177V7.45045L23.386 10.9644H26.1875Z" fill="#757575"/>
<path d="M32 14.6612V15.5198H27.1562V14.846L30.5709 10.6183H27.2217V9.75977H31.9127V10.4444L28.4981 14.6612H32Z" fill="#757575"/>
</svg>
